<?xml version="1.0" encoding="utf-8"?>
<!-- Generator: Adobe Illustrator 21.0.0, SVG Export Plug-In . SVG Version: 6.00 Build 0)  -->
<svg version="1.1" id="Layer_1" xmlns="http://www.w3.org/2000/svg" xmlns:xlink="http://www.w3.org/1999/xlink" x="0px" y="0px"
	 viewBox="0 0 299 125" style="enable-background:new 0 0 299 125;" xml:space="preserve">
<style type="text/css">
	.st0{display:none;}
	.st1{display:inline;}
	.st2{fill:#1C769D;}
	.st3{fill:#FFFFFF;}
</style>
<g class="st0">
	<rect x="-138" y="-199" class="st1" width="565" height="634"/>
</g>
<g>
	<path class="st2" d="M195.9,27.5h-9.8v-3h37.8v3h-12.3l20.3,55.8L252,27.5h-12.4v-3h25.9v3h-9.9L228,105.9h-3.6L195.9,27.5z
		 M272,14.7L228.3,0l-47.4,14.6c0,0.1,0,0.1,0,0.2c0,9.2,0,18.5,0,27.8c0,8.4,0.3,31.2,1,34.1c5.9,23.5,20.6,39.5,44,48.2
		c0.3,0.1,0.7,0.1,1.1,0c21.6-7.9,36.1-22.4,42.9-43.7c2.2-7,2.2-47.9,2.2-66.1C272,14.9,272,14.8,272,14.7z"/>
	<g>
		<path class="st3" d="M166.8,73.5h-1.4l-11.1-30.6h-3.8v-1.2h14.7v1.2h-4.8l7.9,21.8l7.9-21.8h-4.8v-1.2h9.5v1.2h-3.2L166.8,73.5z"
			/>
		<path class="st3" d="M193.6,68.1c-2.2,3.8-5.2,5.4-9.5,5.4c-4,0-7.7-3.4-7.7-7.5c0-6,5.4-11.9,11.5-11.9c3.1,0,6.4,1.5,6.4,5.1
			c0,2.4-1.6,3.7-3.5,4.8c-1.3,0.7-2.7,1-5.5,1h-3.4c-0.5,1.3-0.6,2.6-0.6,4.1c0,2.2,1.8,3.3,3.9,3.3c3.3,0,5.9-1.9,7.5-4.7
			L193.6,68.1z M183.8,63.8c3.8,0,6.4-1.4,6.4-5.5c0-1.7-0.7-3-2.5-3c-4.1,0-4.6,5.7-5.6,8.6L183.8,63.8L183.8,63.8z"/>
		<path class="st3" d="M201.2,73.5c-2.7,0-6.2-1-6.2-4.3c0-1.3,1.1-2.2,2.2-2.2c1.3,0,2,0.9,2,2.2c0,0.8-0.9,1.5-0.9,1.9
			c0,1,2.1,1.3,2.8,1.2c1.9,0,4.2-0.6,4.2-2.9c0-3.6-7.9-5.1-7.9-9.5c0-3.7,3.4-5.8,6.7-5.8c2.9,0,5.3,1.5,5.3,3.1
			c0,1.4-0.7,2.3-2.1,2.3c-0.9,0-1.8-0.8-1.8-1.7c0-0.7,0.5-1.1,0.6-1.7c0-0.8-1.4-0.8-2-0.8c-1.3,0-3.3,0.6-3.3,2.2
			c0,3.2,7.8,4,7.8,9.9C208.9,71.4,204.9,73.5,201.2,73.5z"/>
		<path class="st3" d="M220.6,54.8h3.9l-0.3,1.4h-3.9l-2.8,11.5c-0.3,1.4-0.6,2.8-0.6,3.2c0,0.6,0.5,1,1.1,1c1.8,0,3.8-3.8,4.4-5.3
			l1,0.2c-1.9,5.2-4.7,6.6-7.4,6.6c-1.8,0-3.6-0.9-3.6-2.9c0-0.4,0.3-1.9,0.6-3.5l2.4-10.8h-3.4l0.3-1.4h3.4l1.1-4.6
			c1.6,0,3.3-0.3,4.8-0.7L220.6,54.8z"/>
		<path class="st3" d="M231.5,70.1c-0.3,1.3,0.5,1.8,1,1.8c2.8,0,5.6-5.9,6.4-8.2l2.9-8.6h4.4l-1.6,7.1c-0.4,1.7-0.9,5-0.9,6.6
			c0,1.5,0.2,2.9,2.1,2.9c3.7,0,7.7-8.6,7.5-12.6c0-0.8-0.8-0.7-1.4-0.7c-1.2,0-2.2-0.9-2.2-2.1c0-1.3,0.9-2.2,2.3-2.2
			c2.2,0,2.7,2.1,2.7,3.9c0,5.1-3.9,15.5-10.1,15.5c-4.1,0-4.9-2.4-4.9-5.9c0-1.5,0.6-3.2,0.7-4.6l-0.1-0.1
			c-1.4,4.1-4,10.6-9.4,10.6c-2.1,0-3.9-0.9-3.9-3.2c0-1.3,0.4-2.6,0.7-4l1.5-6.5c0.5-2,0.7-3.2-0.4-3.3c-1.4,0-3.5,3.9-4.2,5
			l-1-0.4c1.5-2.6,3.8-6.7,7.3-6.7c2.1,0,3.4,1.3,3.4,3.4c0,1.3-0.4,2.6-0.7,3.9L231.5,70.1z"/>
		<path class="st3" d="M273.4,68.1c-2.2,3.8-5.2,5.4-9.5,5.4c-4,0-7.7-3.4-7.7-7.5c0-6,5.4-11.9,11.5-11.9c3.1,0,6.4,1.5,6.4,5.1
			c0,2.4-1.6,3.7-3.5,4.8c-1.3,0.7-2.6,1-5.5,1h-3.5c-0.5,1.3-0.6,2.6-0.6,4.1c0,2.2,1.8,3.3,3.9,3.3c3.3,0,5.9-1.9,7.5-4.7
			L273.4,68.1z M263.6,63.8c3.8,0,6.4-1.4,6.4-5.5c0-1.7-0.7-3-2.5-3c-4.1,0-4.6,5.7-5.6,8.6L263.6,63.8L263.6,63.8z"/>
		<path class="st3" d="M281.7,42.5H278l0.3-1.2L287,41l-6.1,27.1c-0.6,2.7-0.6,3.4,0.6,3.4c1.9,0,4.1-3.9,4.6-5.5l1.1,0.2
			c-1.2,3.3-3.7,7.3-7.7,7.3c-2.7,0-4.3-1.3-3.3-5.6L281.7,42.5z"/>
		<path class="st3" d="M293.6,42.5h-3.7l0.3-1.2l8.7-0.3l-6.1,27.1c-0.6,2.7-0.6,3.4,0.6,3.4c1.9,0,4.1-3.9,4.6-5.5l1.1,0.2
			c-1.2,3.3-3.7,7.3-7.7,7.3c-2.7,0-4.3-1.3-3.3-5.6L293.6,42.5z"/>
	</g>
</g>
<g>
	<g>
		<path class="st3" d="M1.5,48.9c0.1,0,0.2,0.1,0.2,0.2l13.1,17.5c0-0.3,0-0.6,0-0.8V48.8h1.3V69h-0.7c-0.2,0-0.4-0.1-0.5-0.3
			L1.7,51.2c0,0.3,0,0.6,0,0.8v17H0.5V48.8h0.7C1.3,48.8,1.4,48.9,1.5,48.9z"/>
	</g>
	<g>
		<path class="st3" d="M26.8,54.6c1,0,1.9,0.2,2.7,0.5c0.8,0.3,1.5,0.8,2,1.5c0.6,0.6,1,1.4,1.3,2.3c0.3,0.9,0.4,1.9,0.4,3
			c0,1.1-0.1,2.1-0.4,3c-0.3,0.9-0.7,1.7-1.3,2.3c-0.6,0.6-1.2,1.1-2,1.5c-0.8,0.3-1.7,0.5-2.7,0.5S24.8,69,24,68.7
			c-0.8-0.3-1.5-0.8-2-1.5c-0.6-0.6-1-1.4-1.3-2.3c-0.3-0.9-0.4-1.9-0.4-3c0-1.1,0.1-2.1,0.4-3c0.3-0.9,0.7-1.7,1.3-2.3
			c0.6-0.6,1.2-1.1,2-1.5C24.8,54.8,25.7,54.6,26.8,54.6z M26.8,68.1c0.8,0,1.6-0.1,2.2-0.4c0.6-0.3,1.2-0.7,1.6-1.2s0.7-1.2,0.9-2
			s0.3-1.6,0.3-2.6c0-0.9-0.1-1.8-0.3-2.6s-0.5-1.4-0.9-2c-0.4-0.5-1-1-1.6-1.3c-0.6-0.3-1.4-0.4-2.2-0.4s-1.6,0.1-2.2,0.4
			c-0.6,0.3-1.2,0.7-1.6,1.3c-0.4,0.5-0.7,1.2-1,2s-0.3,1.6-0.3,2.6c0,1,0.1,1.8,0.3,2.6s0.5,1.4,1,2c0.4,0.5,0.9,1,1.6,1.2
			C25.2,68,25.9,68.1,26.8,68.1z"/>
	</g>
	<g>
		<path class="st3" d="M34.8,54.8h1c0.1,0,0.2,0,0.3,0.1c0.1,0.1,0.1,0.1,0.2,0.2l3.6,11.2c0.1,0.2,0.1,0.4,0.2,0.6
			c0,0.2,0.1,0.4,0.1,0.6c0-0.2,0.1-0.4,0.2-0.6c0.1-0.2,0.1-0.4,0.2-0.6l3.8-11.3c0.1-0.2,0.2-0.3,0.4-0.3h0.6
			c0.2,0,0.3,0.1,0.4,0.3l3.7,11.3c0.1,0.4,0.3,0.8,0.3,1.2c0-0.2,0.1-0.4,0.1-0.6c0-0.2,0.1-0.4,0.2-0.6l3.6-11.2
			c0.1-0.2,0.2-0.3,0.5-0.3h1L50.4,69h-1c-0.2,0-0.3-0.1-0.3-0.3l-3.9-11.5c0-0.1-0.1-0.3-0.1-0.4S45,56.5,45,56.3
			c0,0.1-0.1,0.3-0.1,0.4s-0.1,0.3-0.1,0.4l-3.9,11.5c-0.1,0.2-0.2,0.3-0.3,0.3h-1L34.8,54.8z"/>
	</g>
	<g>
		<path class="st3" d="M67.1,69.2c-1,0-1.7-0.3-2.2-0.8c-0.5-0.5-0.8-1.4-0.8-2.5v-9.7h-2c-0.1,0-0.2,0-0.3-0.1
			c-0.1-0.1-0.1-0.1-0.1-0.2v-0.5l2.4-0.2l0.3-5.1c0-0.1,0-0.2,0.1-0.2c0.1-0.1,0.1-0.1,0.2-0.1h0.6v5.4h4.5v1h-4.5v9.6
			c0,0.4,0.1,0.7,0.2,1c0.1,0.3,0.2,0.5,0.4,0.7s0.4,0.3,0.6,0.4c0.2,0.1,0.5,0.1,0.8,0.1c0.3,0,0.6-0.1,0.9-0.1s0.5-0.2,0.6-0.3
			s0.3-0.2,0.4-0.3c0.1-0.1,0.2-0.1,0.3-0.1c0.1,0,0.2,0,0.2,0.1l0.4,0.6c-0.4,0.4-0.8,0.7-1.4,1S67.7,69.2,67.1,69.2z"/>
	</g>
	<g>
		<path class="st3" d="M73.4,69V48.3h1.4v9c0.7-0.8,1.4-1.5,2.2-1.9s1.8-0.7,2.8-0.7c0.8,0,1.5,0.1,2.1,0.4s1.1,0.6,1.5,1.1
			c0.4,0.5,0.7,1,0.9,1.7c0.2,0.7,0.3,1.4,0.3,2.2V69h-1.4v-9.1c0-1.3-0.3-2.4-0.9-3.1c-0.6-0.8-1.5-1.1-2.8-1.1
			c-0.9,0-1.8,0.2-2.6,0.7s-1.5,1.1-2.1,2V69H73.4z"/>
	</g>
	<g>
		<path class="st3" d="M94.2,54.6c0.8,0,1.5,0.1,2.2,0.4c0.7,0.3,1.3,0.7,1.8,1.2c0.5,0.5,0.9,1.2,1.2,1.9s0.4,1.7,0.4,2.7
			c0,0.2,0,0.4-0.1,0.4c-0.1,0.1-0.2,0.1-0.3,0.1H89.2v0.3c0,1.1,0.1,2,0.4,2.8s0.6,1.5,1.1,2c0.5,0.5,1,1,1.7,1.2
			c0.6,0.3,1.4,0.4,2.2,0.4c0.7,0,1.3-0.1,1.9-0.2s1-0.3,1.3-0.5c0.4-0.2,0.6-0.4,0.8-0.5s0.4-0.2,0.5-0.2c0.1,0,0.2,0,0.3,0.1
			l0.4,0.5c-0.2,0.3-0.5,0.6-0.9,0.8c-0.4,0.2-0.8,0.5-1.3,0.6c-0.5,0.2-1,0.3-1.5,0.4c-0.5,0.1-1.1,0.2-1.6,0.2
			c-1,0-1.9-0.2-2.7-0.5c-0.8-0.3-1.5-0.8-2.1-1.5s-1-1.4-1.3-2.4c-0.3-0.9-0.5-2-0.5-3.2c0-1,0.1-2,0.4-2.8s0.7-1.6,1.3-2.2
			c0.5-0.6,1.2-1.1,2-1.5C92.3,54.8,93.2,54.6,94.2,54.6z M94.2,55.6c-0.7,0-1.4,0.1-2,0.3c-0.6,0.2-1.1,0.6-1.5,1
			c-0.4,0.4-0.8,0.9-1,1.5c-0.3,0.6-0.4,1.3-0.5,2h9.3c0-0.8-0.1-1.4-0.3-2c-0.2-0.6-0.5-1.1-0.9-1.5c-0.4-0.4-0.8-0.7-1.4-1
			S94.9,55.6,94.2,55.6z"/>
	</g>
	<g>
		<path class="st3" d="M103.4,69V54.8h0.7c0.2,0,0.3,0,0.3,0.1c0.1,0.1,0.1,0.2,0.1,0.3l0.1,3c0.5-1.1,1.1-2,1.8-2.7
			c0.8-0.7,1.7-1,2.8-1c0.4,0,0.8,0,1.2,0.1s0.7,0.2,1,0.4l-0.2,0.9c0,0.2-0.1,0.2-0.3,0.2c-0.1,0-0.1,0-0.2-0.1s-0.2-0.1-0.4-0.1
			c-0.2,0-0.3-0.1-0.6-0.1c-0.2,0-0.5-0.1-0.8-0.1c-1.1,0-2,0.3-2.6,1c-0.7,0.7-1.2,1.6-1.7,2.9V69H103.4z"/>
	</g>
	<g>
		<path class="st3" d="M120.1,54.6c0.8,0,1.5,0.1,2.2,0.4c0.7,0.3,1.3,0.7,1.8,1.2c0.5,0.5,0.9,1.2,1.2,1.9s0.4,1.7,0.4,2.7
			c0,0.2,0,0.4-0.1,0.4c-0.1,0.1-0.2,0.1-0.3,0.1H115v0.3c0,1.1,0.1,2,0.4,2.8s0.6,1.5,1.1,2c0.5,0.5,1,1,1.7,1.2
			c0.6,0.3,1.4,0.4,2.2,0.4c0.7,0,1.3-0.1,1.9-0.2s1-0.3,1.3-0.5c0.4-0.2,0.6-0.4,0.8-0.5s0.4-0.2,0.5-0.2c0.1,0,0.2,0,0.3,0.1
			l0.4,0.5c-0.2,0.3-0.5,0.6-0.9,0.8c-0.4,0.2-0.8,0.5-1.3,0.6c-0.5,0.2-1,0.3-1.5,0.4c-0.5,0.1-1.1,0.2-1.6,0.2
			c-1,0-1.9-0.2-2.7-0.5c-0.8-0.3-1.5-0.8-2.1-1.5s-1-1.4-1.3-2.4c-0.3-0.9-0.5-2-0.5-3.2c0-1,0.1-2,0.4-2.8s0.7-1.6,1.3-2.2
			c0.5-0.6,1.2-1.1,2-1.5C118.2,54.8,119.1,54.6,120.1,54.6z M120.1,55.6c-0.7,0-1.4,0.1-2,0.3c-0.6,0.2-1.1,0.6-1.5,1
			c-0.4,0.4-0.8,0.9-1,1.5c-0.3,0.6-0.4,1.3-0.5,2h9.3c0-0.8-0.1-1.4-0.3-2c-0.2-0.6-0.5-1.1-0.9-1.5c-0.4-0.4-0.8-0.7-1.4-1
			S120.7,55.6,120.1,55.6z"/>
	</g>
	<g>
		<path class="st3" d="M130.7,48.8V53l-0.1,2.2c0,0.2-0.1,0.3-0.1,0.4s-0.2,0.1-0.3,0.1c-0.1,0-0.2,0-0.3-0.1s-0.1-0.2-0.1-0.4
			l-0.1-2.2v-4.2H130.7z"/>
	</g>
	<g>
		<path class="st3" d="M143.4,56.6c-0.1,0.1-0.2,0.2-0.3,0.2c-0.1,0-0.2-0.1-0.4-0.2c-0.2-0.1-0.4-0.3-0.7-0.4
			c-0.3-0.1-0.6-0.3-1-0.4c-0.4-0.1-0.9-0.2-1.4-0.2c-0.5,0-1,0.1-1.4,0.2s-0.8,0.3-1.1,0.6c-0.3,0.2-0.5,0.5-0.7,0.9
			c-0.2,0.3-0.2,0.7-0.2,1c0,0.4,0.1,0.8,0.3,1.1c0.2,0.3,0.5,0.5,0.9,0.8c0.4,0.2,0.8,0.4,1.3,0.5c0.5,0.2,1,0.3,1.4,0.5
			c0.5,0.2,1,0.3,1.4,0.5c0.5,0.2,0.9,0.4,1.3,0.7c0.4,0.3,0.7,0.6,0.9,1c0.2,0.4,0.3,0.9,0.3,1.5c0,0.6-0.1,1.2-0.3,1.7
			s-0.5,1-1,1.4s-0.9,0.7-1.6,0.9c-0.6,0.2-1.3,0.3-2.1,0.3c-1,0-1.9-0.2-2.6-0.5c-0.7-0.3-1.4-0.7-1.9-1.2l0.3-0.5
			c0-0.1,0.1-0.1,0.2-0.2c0.1,0,0.1-0.1,0.2-0.1c0.1,0,0.3,0.1,0.5,0.2c0.2,0.2,0.4,0.3,0.7,0.5c0.3,0.2,0.7,0.3,1.1,0.5
			c0.4,0.2,1,0.2,1.6,0.2c0.6,0,1.1-0.1,1.6-0.2c0.5-0.2,0.8-0.4,1.1-0.7c0.3-0.3,0.5-0.6,0.7-1c0.2-0.4,0.2-0.8,0.2-1.2
			c0-0.5-0.1-0.9-0.3-1.2c-0.2-0.3-0.5-0.6-0.9-0.8c-0.4-0.2-0.8-0.4-1.3-0.6c-0.5-0.2-1-0.3-1.5-0.5s-1-0.3-1.5-0.5
			c-0.5-0.2-0.9-0.4-1.3-0.7c-0.4-0.3-0.7-0.6-0.9-1c-0.2-0.4-0.3-0.9-0.3-1.5c0-0.5,0.1-1,0.3-1.5s0.5-0.9,0.9-1.2s0.9-0.6,1.5-0.8
			c0.6-0.2,1.2-0.3,2-0.3c0.9,0,1.6,0.1,2.3,0.4c0.7,0.3,1.3,0.6,1.8,1.1L143.4,56.6z"/>
	</g>
</g>
<g>
	<g>
		<path class="st3" d="M160.8,99h1.9v0.4c0,0.1,0,0.1,0,0.1c0,0-0.1,0-0.2,0h-1.7v3h-0.6v-3h-5c-0.1,0-0.1,0-0.2,0
			c0,0-0.1-0.1-0.1-0.1l-0.1-0.4l5.3-7h0.6V99z M160.2,93.4c0-0.1,0-0.2,0-0.3c0-0.1,0-0.2,0-0.3l-4.6,6.1h4.5V93.4z"/>
	</g>
	<g>
		<path class="st3" d="M172,97.3c0,0.9-0.1,1.7-0.3,2.4c-0.2,0.7-0.5,1.2-0.8,1.7c-0.3,0.4-0.7,0.8-1.2,1c-0.5,0.2-1,0.3-1.5,0.3
			c-0.5,0-1-0.1-1.5-0.3c-0.5-0.2-0.9-0.5-1.2-1c-0.3-0.4-0.6-1-0.8-1.7c-0.2-0.7-0.3-1.5-0.3-2.4s0.1-1.7,0.3-2.4
			c0.2-0.7,0.5-1.2,0.8-1.7c0.3-0.4,0.7-0.8,1.2-1s1-0.3,1.5-0.3c0.5,0,1,0.1,1.5,0.3c0.5,0.2,0.9,0.5,1.2,1c0.3,0.4,0.6,1,0.8,1.7
			C171.9,95.5,172,96.3,172,97.3z M171.3,97.3c0-0.9-0.1-1.6-0.2-2.2c-0.2-0.6-0.4-1.1-0.7-1.5c-0.3-0.4-0.6-0.7-1-0.9
			c-0.4-0.2-0.8-0.3-1.2-0.3c-0.4,0-0.8,0.1-1.2,0.3c-0.4,0.2-0.7,0.5-1,0.9c-0.3,0.4-0.5,0.9-0.7,1.5c-0.2,0.6-0.2,1.3-0.2,2.2
			c0,0.9,0.1,1.6,0.2,2.2c0.2,0.6,0.4,1.1,0.7,1.5c0.3,0.4,0.6,0.7,1,0.8c0.4,0.2,0.8,0.3,1.2,0.3c0.4,0,0.8-0.1,1.2-0.3
			c0.4-0.2,0.7-0.5,1-0.8c0.3-0.4,0.5-0.9,0.7-1.5C171.2,98.9,171.3,98.1,171.3,97.3z"/>
	</g>
	<g>
		<path class="st3" d="M175.6,102h2.4v-8.6c0-0.2,0-0.4,0-0.5l-2.3,2.1c0,0-0.1,0.1-0.2,0.1c-0.1,0-0.2,0-0.2-0.1l-0.2-0.3l3.1-2.7
			h0.6V102h2.3v0.5h-5.5V102z"/>
	</g>
	<g>
		<path class="st3" d="M184.6,97.9c0,1.1,0.2,2.2,0.5,3.2c0.3,1,0.8,2,1.4,3c0,0.1,0.1,0.1,0.1,0.2c0,0.1,0,0.1-0.1,0.2l-0.3,0.2
			c-0.4-0.6-0.7-1.2-1-1.7c-0.3-0.6-0.5-1.1-0.6-1.7c-0.2-0.5-0.3-1.1-0.3-1.6s-0.1-1.1-0.1-1.7s0-1.2,0.1-1.7
			c0.1-0.6,0.2-1.1,0.3-1.6c0.2-0.5,0.4-1.1,0.6-1.7c0.3-0.6,0.6-1.1,1-1.7l0.3,0.2c0.1,0,0.1,0.1,0.1,0.2c0,0,0,0.1-0.1,0.2
			c-0.6,1-1,2-1.3,3C184.8,95.7,184.6,96.7,184.6,97.9z"/>
	</g>
	<g>
		<path class="st3" d="M190,91.7v6.7h0.3c0.1,0,0.1,0,0.2,0s0.1-0.1,0.2-0.1l3-2.8c0.1-0.1,0.1-0.1,0.2-0.1c0.1,0,0.1-0.1,0.2-0.1
			h0.6l-3.3,3.1c0,0-0.1,0.1-0.1,0.1s-0.1,0.1-0.2,0.1c0.1,0,0.1,0.1,0.2,0.1c0.1,0.1,0.1,0.1,0.2,0.2l3.5,3.8h-0.6
			c-0.1,0-0.1,0-0.2,0c-0.1,0-0.1-0.1-0.2-0.1l-3.1-3.4c-0.1-0.1-0.2-0.2-0.2-0.2c-0.1,0-0.2,0-0.3,0H190v3.8h-0.7V91.7H190z"/>
	</g>
	<g>
		<path class="st3" d="M198.7,97.9c0-1.1-0.2-2.2-0.5-3.2c-0.3-1-0.8-2-1.3-3c0-0.1-0.1-0.1-0.1-0.2c0-0.1,0-0.1,0.1-0.2l0.3-0.2
			c0.4,0.6,0.7,1.2,1,1.7c0.3,0.6,0.5,1.1,0.6,1.7c0.2,0.5,0.3,1.1,0.3,1.6c0.1,0.6,0.1,1.1,0.1,1.7s0,1.2-0.1,1.7
			c-0.1,0.5-0.2,1.1-0.3,1.6c-0.2,0.5-0.4,1.1-0.6,1.7c-0.3,0.6-0.6,1.1-1,1.7l-0.3-0.2c-0.1,0-0.1-0.1-0.1-0.2c0,0,0-0.1,0.1-0.2
			c0.6-1,1.1-1.9,1.4-3C198.6,100.1,198.7,99,198.7,97.9z"/>
	</g>
	<g>
		<path class="st3" d="M211.9,99.9c0-0.1,0.1-0.2,0.1-0.2c0-0.1,0.1-0.2,0.1-0.2l4.2-7.4c0-0.1,0.1-0.1,0.1-0.1c0,0,0.1,0,0.2,0h0.5
			v10.6h-0.7v-9c0-0.1,0-0.3,0-0.4l-4.2,7.4c-0.1,0.1-0.2,0.2-0.3,0.2h-0.1c-0.1,0-0.2-0.1-0.3-0.2l-4.3-7.4c0,0.1,0,0.3,0,0.4v9
			h-0.7V92h0.5c0.1,0,0.1,0,0.2,0c0,0,0.1,0.1,0.1,0.1l4.3,7.4C211.8,99.6,211.8,99.8,211.9,99.9z"/>
	</g>
	<g>
		<path class="st3" d="M229,102.6h-0.6c-0.1,0-0.1,0-0.2-0.1s-0.1-0.1-0.1-0.1l-1.3-3.1h-5.2l-1.2,3.1c0,0.1-0.1,0.1-0.1,0.1
			c-0.1,0-0.1,0.1-0.2,0.1h-0.6l4.3-10.6h0.8L229,102.6z M221.9,98.7h4.8l-2.2-5.4c0-0.1-0.1-0.2-0.1-0.3c0-0.1-0.1-0.2-0.1-0.3
			c0,0.1-0.1,0.2-0.1,0.3c0,0.1-0.1,0.2-0.1,0.3L221.9,98.7z"/>
	</g>
	<g>
		<path class="st3" d="M240.3,97.3c0,0.8-0.1,1.6-0.4,2.2c-0.2,0.7-0.6,1.2-1,1.7c-0.4,0.5-1,0.8-1.6,1.1c-0.6,0.2-1.3,0.4-2.1,0.4
			h-3.9V92h3.9c0.8,0,1.4,0.1,2.1,0.4c0.6,0.2,1.2,0.6,1.6,1.1c0.4,0.5,0.8,1,1,1.7C240.2,95.7,240.3,96.5,240.3,97.3z M239.5,97.3
			c0-0.7-0.1-1.4-0.3-2s-0.5-1.1-0.9-1.5c-0.4-0.4-0.8-0.7-1.3-0.9c-0.5-0.2-1.1-0.3-1.7-0.3h-3.1v9.4h3.1c0.6,0,1.2-0.1,1.7-0.3
			c0.5-0.2,1-0.5,1.3-0.9c0.4-0.4,0.7-0.9,0.9-1.5S239.5,98,239.5,97.3z"/>
	</g>
	<g>
		<path class="st3" d="M249.9,92v0.6h-5.6v4.3h4.6v0.6h-4.6v4.4h5.6v0.6h-6.4V92H249.9z"/>
	</g>
	<g>
		<path class="st3" d="M263.2,92v0.6h-5.6v4.3h4.6v0.6h-4.6v4.4h5.6v0.6h-6.4V92H263.2z"/>
	</g>
	<g>
		<path class="st3" d="M274.4,102.6h-0.6c-0.1,0-0.1,0-0.2-0.1s-0.1-0.1-0.1-0.1l-1.3-3.1h-5.2l-1.2,3.1c0,0.1-0.1,0.1-0.1,0.1
			c-0.1,0-0.1,0.1-0.2,0.1H265l4.3-10.6h0.8L274.4,102.6z M267.3,98.7h4.8l-2.2-5.4c0-0.1-0.1-0.2-0.1-0.3c0-0.1-0.1-0.2-0.1-0.3
			c0,0.1-0.1,0.2-0.1,0.3c0,0.1-0.1,0.2-0.1,0.3L267.3,98.7z"/>
	</g>
	<g>
		<path class="st3" d="M282,93.3c0,0.1-0.1,0.1-0.2,0.1c-0.1,0-0.1,0-0.3-0.1c-0.1-0.1-0.2-0.2-0.4-0.3c-0.2-0.1-0.4-0.2-0.7-0.3
			c-0.3-0.1-0.6-0.1-1-0.1c-0.4,0-0.7,0.1-1,0.2c-0.3,0.1-0.5,0.3-0.7,0.5s-0.3,0.4-0.5,0.7s-0.2,0.5-0.2,0.8c0,0.4,0.1,0.7,0.2,0.9
			c0.2,0.2,0.4,0.4,0.6,0.6c0.2,0.2,0.5,0.3,0.9,0.4c0.3,0.1,0.6,0.2,1,0.3c0.3,0.1,0.7,0.2,1,0.4c0.3,0.1,0.6,0.3,0.9,0.5
			c0.2,0.2,0.5,0.4,0.6,0.7c0.2,0.3,0.2,0.7,0.2,1.1c0,0.4-0.1,0.9-0.2,1.3s-0.4,0.7-0.7,1c-0.3,0.3-0.6,0.5-1.1,0.7
			s-0.9,0.3-1.4,0.3c-0.7,0-1.3-0.1-1.8-0.4c-0.5-0.2-0.9-0.6-1.3-1l0.2-0.3c0.1-0.1,0.1-0.1,0.2-0.1c0,0,0.1,0,0.2,0.1
			s0.2,0.1,0.3,0.2c0.1,0.1,0.2,0.2,0.4,0.3c0.1,0.1,0.3,0.2,0.5,0.3c0.2,0.1,0.4,0.2,0.6,0.2s0.5,0.1,0.8,0.1
			c0.4,0,0.8-0.1,1.1-0.2c0.3-0.1,0.6-0.3,0.8-0.5s0.4-0.5,0.5-0.8s0.2-0.6,0.2-1c0-0.4-0.1-0.7-0.2-0.9c-0.2-0.2-0.4-0.4-0.6-0.6
			c-0.2-0.2-0.5-0.3-0.9-0.4c-0.3-0.1-0.6-0.2-1-0.3c-0.3-0.1-0.7-0.2-1-0.4c-0.3-0.1-0.6-0.3-0.9-0.5c-0.2-0.2-0.5-0.5-0.6-0.8
			c-0.2-0.3-0.2-0.7-0.2-1.1c0-0.4,0.1-0.7,0.2-1c0.1-0.3,0.3-0.6,0.6-0.9c0.3-0.3,0.6-0.5,1-0.6c0.4-0.2,0.8-0.2,1.3-0.2
			c0.6,0,1,0.1,1.5,0.3c0.4,0.2,0.8,0.4,1.2,0.8L282,93.3z"/>
	</g>
	<g>
		<path class="st3" d="M288.7,98.2v4.4H288v-4.4L284,92h0.7c0.1,0,0.1,0,0.2,0c0,0,0.1,0.1,0.1,0.1l3,4.9c0.1,0.1,0.1,0.2,0.2,0.3
			s0.1,0.2,0.1,0.3c0-0.1,0.1-0.2,0.1-0.3s0.1-0.2,0.2-0.3l3-4.9c0-0.1,0.1-0.1,0.1-0.1c0,0,0.1-0.1,0.2-0.1h0.7L288.7,98.2z"/>
	</g>
</g>
</svg>
